<?xml version="1.0" standalone="no"?>
<!DOCTYPE svg PUBLIC "-//W3C//DTD SVG 1.1//EN" "http://www.w3.org/Graphics/SVG/1.1/DTD/svg11.dtd" >
<svg xmlns="http://www.w3.org/2000/svg">
<metadata>Generated by IcoMoon</metadata>
<defs>
<font id="rajeshrasu" horiz-adv-x="1024">
<font-face units-per-em="1024" ascent="960" descent="-64" />
<missing-glyph horiz-adv-x="1024" />
<glyph unicode="&#x20;" horiz-adv-x="512" d="" />
<glyph unicode="&#xe900;" glyph-name="placeholder" d="M515.338 735.59c-72.166 0-130.906-58.739-130.906-130.906s58.739-130.906 130.906-130.906 130.906 58.739 130.906 130.906-58.739 130.906-130.906 130.906zM515.338 511.181c-51.558 0-93.504 41.946-93.504 93.504s41.946 93.504 93.504 93.504 93.504-41.946 93.504-93.504-41.946-93.504-93.504-93.504zM765.611 854.958c-67.734 67.734-157.797 105.042-253.583 105.042-95.804 0-185.849-37.308-253.583-105.042-125.351-125.333-140.929-361.15-33.736-504.024l287.319-414.933 286.889 414.354c107.623 143.454 92.045 379.271-33.306 504.604zM768.584 372.215l-256.556-370.5-256.968 371.080c-97.225 129.634-83.293 342.599 29.846 455.72 60.665 60.665 141.322 94.084 227.121 94.084s166.456-33.418 227.14-94.084c113.14-113.121 127.072-326.086 29.416-456.3z" />
<glyph unicode="&#xe901;" glyph-name="computer" d="M512 358.268c-32.014 0-58.062-26.048-58.062-58.062s26.048-58.062 58.062-58.062 58.062 26.048 58.062 58.062-26.048 58.062-58.062 58.062zM512 273.814c-14.554 0-26.392 11.838-26.392 26.392s11.838 26.392 26.392 26.392 26.392-11.838 26.392-26.392-11.838-26.392-26.392-26.392zM987.052 960h-950.104c-20.372 0-36.948-16.576-36.948-36.948v-717.856c0-20.372 16.576-36.948 36.948-36.948h300.866v-116.124h-49.31l-29.030-116.124h505.056l-29.032 116.124h-49.312v116.124h300.866c20.372 0 36.948 16.576 36.948 36.948v717.856c0 20.372-16.576 36.948-36.948 36.948zM710.77 20.454l13.198-52.784h-423.936l13.196 52.784h397.542zM369.484 52.124v116.124h285.032v-116.124h-285.032zM992.33 205.196c0-2.86-2.418-5.278-5.278-5.278h-950.104c-2.86 0-5.278 2.418-5.278 5.278v184.742h960.66v-184.742zM496.164 801.65v-380.042h-31.67v198.548l-79.174 184.742-79.176-184.742v-198.548h-200.576v432.824h812.866v-432.824h-200.578v380.042h-221.692zM527.836 506.062v73.896h89.732v31.67h-89.732v73.896h58.062v31.67h-58.062v52.786h158.35v-348.372h-158.35v52.784h58.062v31.67h-58.062zM345.994 632.742l39.326 91.76 39.326-91.76h-78.652zM369.484 601.072v-179.464h-31.67v179.464h31.67zM401.154 601.072h31.67v-179.464h-31.67v179.464zM992.33 421.608h-42.226v464.496h-876.208v-464.494h-42.226v501.442c0 2.86 2.418 5.278 5.278 5.278h950.104c2.86 0 5.278-2.418 5.278-5.278v-501.444zM147.794 801.65v-195.3h31.67v163.63h79.176v31.67zM147.794 574.68h31.67v-42.226h-31.67v42.226zM844.536 553.568v-58.062h-79.176v-31.67h110.846v89.732z" />
<glyph unicode="&#xe902;" glyph-name="teamwork" d="M972.8 174.933h-68.267c-4.527 0-8.866-1.801-12.066-5.001l-22.067-22.067-22.067 22.067c-3.2 3.2-7.539 5.001-12.066 5.001h-68.267c-28.277 0-51.2-22.923-51.2-51.2v-136.533c0-28.277 22.923-51.2 51.2-51.2h204.8c28.277 0 51.2 22.923 51.2 51.2v136.533c0 28.277-22.923 51.2-51.2 51.2zM989.867-12.8c0-9.425-7.642-17.067-17.067-17.067h-204.8c-9.425 0-17.067 7.642-17.067 17.067v136.533c0 9.425 7.642 17.067 17.067 17.067h61.201l24.132-24.132v-44.134h34.133v44.134l24.132 24.132h61.201c9.425 0 17.067-7.642 17.067-17.067v-136.533zM256 174.933h-68.267c-4.527 0-8.866-1.801-12.066-5.001l-22.067-22.067-22.067 22.067c-3.2 3.2-7.539 5.001-12.066 5.001h-68.267c-28.277 0-51.2-22.923-51.2-51.2v-136.533c0-28.277 22.923-51.2 51.2-51.2h204.8c28.277 0 51.2 22.923 51.2 51.2v136.533c0 28.277-22.923 51.2-51.2 51.2zM273.067-12.8c0-9.425-7.642-17.067-17.067-17.067h-204.8c-9.425 0-17.067 7.642-17.067 17.067v136.533c0 9.425 7.642 17.067 17.067 17.067h61.201l24.132-24.132v-44.134h34.133v44.134l24.132 24.132h61.201c9.425 0 17.067-7.642 17.067-17.067v-136.533zM512 960c-56.555 0-102.4-45.845-102.4-102.4s45.845-102.4 102.4-102.4c56.531 0.055 102.345 45.869 102.4 102.4 0 56.555-45.845 102.4-102.4 102.4zM512 789.333c-37.702 0-68.267 30.564-68.267 68.267s30.564 68.267 68.267 68.267c37.702 0 68.267-30.564 68.267-68.267s-30.564-68.267-68.267-68.267zM971.369 311.362c-7.264 42.972-40.93 76.638-83.902 83.902v52.736c0 9.425-7.642 17.067-17.067 17.067h-341.333v34.133h85.333c28.277 0 51.2 22.923 51.2 51.2v136.533c0 28.277-22.923 51.2-51.2 51.2h-204.8c-28.277 0-51.2-22.923-51.2-51.2v-136.533c0-28.277 22.923-51.2 51.2-51.2h85.333v-34.133h-341.333c-9.425 0-17.067-7.642-17.067-17.067v-52.736c-55.763-9.425-93.327-62.272-83.902-118.035s62.272-93.327 118.035-83.902c55.763 9.425 93.327 62.272 83.902 118.035-7.264 42.972-40.93 76.638-83.902 83.902v35.669h324.267v-35.669c-55.763-9.425-93.327-62.272-83.902-118.035s62.272-93.327 118.035-83.902c55.763 9.425 93.327 62.272 83.902 118.035-7.264 42.972-40.93 76.638-83.902 83.902v35.669h324.267v-35.669c-55.763-9.425-93.327-62.272-83.902-118.035s62.272-93.327 118.035-83.902c55.763 9.427 93.327 62.272 83.902 118.035zM221.867 294.4c0-37.702-30.564-68.267-68.267-68.267s-68.267 30.564-68.267 68.267c0 37.702 30.564 68.267 68.267 68.267s68.267-30.564 68.267-68.267zM531.319 704l-16.452-24.661c-1.871-2.805-2.867-6.101-2.867-9.472 0.004-1.111 0.117-2.221 0.341-3.311l15.258-76.407-15.599-15.616-15.599 15.616 15.258 76.305c0.23 1.122 0.343 2.268 0.341 3.413-0.006 3.36-1.003 6.643-2.867 9.438l-16.452 24.695h38.639zM580.267 294.4c0-37.702-30.564-68.267-68.267-68.267s-68.267 30.564-68.267 68.267c0 37.702 30.564 68.267 68.267 68.267s68.267-30.564 68.267-68.267zM409.6 533.333c-9.425 0-17.067 7.642-17.067 17.067v136.533c0 9.425 7.642 17.067 17.067 17.067h42.069l25.139-37.717-15.667-78.336c-1.101-5.577 0.644-11.334 4.659-15.36l34.133-34.133c6.665-6.662 17.468-6.662 24.132 0l34.133 34.133c4.015 4.026 5.76 9.783 4.659 15.36l-15.667 78.404 25.139 37.649h42.069c9.425 0 17.067-7.642 17.067-17.067v-136.533c0-9.425-7.642-17.067-17.067-17.067h-204.8zM870.4 226.133c-37.702 0-68.267 30.564-68.267 68.267s30.564 68.267 68.267 68.267c37.702 0 68.267-30.564 68.267-68.267s-30.564-68.267-68.267-68.267zM614.4 174.933h-68.267c-4.527 0-8.866-1.801-12.066-5.001l-22.067-22.067-22.067 22.067c-3.2 3.2-7.539 5.001-12.066 5.001h-68.267c-28.277 0-51.2-22.923-51.2-51.2v-136.533c0-28.277 22.923-51.2 51.2-51.2h204.8c28.277 0 51.2 22.923 51.2 51.2v136.533c0 28.277-22.923 51.2-51.2 51.2zM631.467-12.8c0-9.425-7.642-17.067-17.067-17.067h-204.8c-9.425 0-17.067 7.642-17.067 17.067v136.533c0 9.425 7.642 17.067 17.067 17.067h61.201l24.132-24.132v-44.134h34.133v44.134l24.132 24.132h61.201c9.425 0 17.067-7.642 17.067-17.067v-136.533z" />
<glyph unicode="&#xe903;" glyph-name="tick-inside-a-circle" d="M512-64c-282.306 0-512 229.674-512 511.997 0 282.326 229.694 512.003 512 512.003 282.309 0 512.003-229.677 512.003-512.003 0-282.323-229.694-511.997-512.003-511.997zM512 926.969c-264.112 0-478.969-214.873-478.969-478.972s214.857-478.969 478.969-478.969c264.115 0 478.972 214.871 478.972 478.969s-214.857 478.972-478.972 478.972zM417.35 229.609l-183.036 183.036 23.356 23.353 159.68-159.677 347.556 347.542 23.356-23.353z" />
<glyph unicode="&#xe904;" glyph-name="application" d="M976 944h-928c-26.51 0-48-21.49-48-48v-704c0-8.836 7.164-16 16-16h364.48l-25.6-128h-34.88c-8.836 0-16-7.164-16-16v-48h-32v-32h480v32h-32v48c0 8.836-7.164 16-16 16h-34.906l-25.6 128h364.506c8.836 0 16 7.164 16 16v704c0 26.51-21.49 48-48 48zM656 16h32v-32h-352v32h320zM387.52 48l25.576 128h197.784l25.6-128h-248.96zM992 208h-960v144h960v-144zM112 384v448h800v-448h-800zM992 384h-48v464c0 8.836-7.164 16-16 16h-832c-8.836 0-16-7.164-16-16v-464h-48v512c0 8.836 7.164 16 16 16h928c8.836 0 16-7.164 16-16v-512zM512 336c-26.51 0-48-21.49-48-48s21.49-48 48-48 48 21.49 48 48-21.49 48-48 48zM512 272c-8.836 0-16 7.164-16 16s7.164 16 16 16c8.836 0 16-7.164 16-16s-7.164-16-16-16zM160 800c-8.836 0-16-7.164-16-16v-48h32v32h32v32h-48zM400 768h-96c-8.836 0-16-7.164-16-16v-96c0-8.836 7.164-16 16-16h96c8.836 0 16 7.164 16 16v96c0 8.836-7.164 16-16 16zM320 736h41.384l-41.384-41.384v41.384zM384 672h-41.36l41.36 41.36v-41.36zM464 752h32v-32h-32v32zM528 752h32v-32h-32v32zM464 688h256v-32h-256v32zM400 592h-96c-8.836 0-16-7.164-16-16v-96c0-8.836 7.164-16 16-16h96c8.836 0 16 7.164 16 16v96c0 8.836-7.164 16-16 16zM384 496h-64v64h64v-64zM464 576h32v-32h-32v32zM528 576h32v-32h-32v32zM464 512h256v-32h-256v32z" />
<glyph unicode="&#xe905;" glyph-name="dreamweaver" d="M793.107 960h-562.214c-127.317 0-230.893-103.576-230.893-230.893v-562.214c0-127.317 103.576-230.893 230.893-230.893h562.214c127.317 0 230.893 103.576 230.893 230.893v562.214c0 127.317-103.576 230.893-230.893 230.893zM986.074 166.893c0-106.401-86.547-192.967-192.967-192.967h-562.214c-106.42 0-192.967 86.566-192.967 192.967v562.214c0 106.401 86.547 192.967 192.967 192.967h562.214c106.42 0 192.967-86.566 192.967-192.967v-562.214zM241.228 733.203h-142.62v-531.721h157.772c107.217 0 160.806 50.555 160.806 151.704v207.834c0 52.072-15.038 93.791-45.132 125.156s-73.709 47.028-130.825 47.028zM362.572 345.6c0-20.215-3.546-36.902-10.619-50.062-15.682-29.829-51.598-44.753-107.729-44.753h-91.022v430.080h95.573c31.877 0 58.804-9.235 80.782-27.686 21.997-18.47 32.996-46.649 32.996-84.575v-223.004zM800.237 276.575l-78.127 304.924h-53.855l-78.127-304.924-91.781 304.924h-58.406l118.329-380.018h65.233l70.561 276.101 69.765-276.101h65.252l119.068 380.018h-58.406z" />
<glyph unicode="&#xe906;" glyph-name="css" d="M899.513 744.836l-191.823 191.841c-0.018 0.018-0.018 0.018-0.035 0.018l-13.594 13.612c-6.268 6.25-14.583 9.693-23.428 9.693h-512.388c-20.957 0-43.485-16.172-43.485-51.659v-937.031c0-14.777 14.848-29.166 32.415-33.704 0.9-0.247 1.766-0.583 2.684-0.759 2.754-0.547 5.561-0.847 8.386-0.847h707.513c2.825 0 5.632 0.3 8.386 0.847 0.918 0.177 1.783 0.512 2.684 0.759 17.567 4.537 32.415 18.926 32.415 33.704v741.906c0 13.542-1.642 23.552-9.728 31.62zM697.379 897.059l148.921-148.921h-148.921v148.921zM158.243-28.69c-1.254 0-2.383 0.441-3.496 0.865-2.737 1.306-4.679 4.061-4.679 7.309v256.653h723.862v-256.653c0-3.249-1.942-6.003-4.679-7.309-1.112-0.424-2.242-0.865-3.496-0.865h-707.513zM150.069 271.448v636.893c0 3.831 0.583 16.349 8.174 16.349h504.85c-0.583-2.225-1.024-4.52-1.024-6.903v-201.075c-9.393 8.474-21.698 13.771-35.31 13.771-9.763 0-17.655-7.91-17.655-17.655s7.892-17.655 17.655-17.655c9.746 0 17.655-7.927 17.655-17.655v-70.621c0-21.186 9.569-40.007 24.399-52.966-14.83-12.959-24.399-31.779-24.399-52.966v-70.621c0-9.728-7.91-17.655-17.655-17.655-9.763 0-17.655-7.91-17.655-17.655s7.892-17.655 17.655-17.655c29.202 0 52.966 23.764 52.966 52.966v70.621c0 19.474 15.837 35.31 35.31 35.31 9.763 0 17.655 7.91 17.655 17.655s-7.892 17.655-17.655 17.655c-19.474 0-35.31 15.837-35.31 35.31v70.621c0 13.612-5.314 25.918-13.771 35.31h201.075c2.383 0 4.679 0.441 6.903 1.024 0-0.265 0.018-0.371 0.018-0.636v-441.768h-723.88zM353.704 148.674c4.255 5.402 9.092 9.198 14.477 11.458s11.070 3.372 17.020 3.372c5.314 0 10.417-1.059 15.325-3.143s9.375-5.473 13.4-10.134l20.039 17.867c-6.603 6.426-14.089 11.264-22.44 14.477s-17.373 4.82-27.030 4.82c-10.47 0-20.198-1.96-29.202-5.914s-16.861-9.693-23.534-17.267-11.917-17.020-15.695-28.354c-3.778-11.352-5.667-24.505-5.667-39.459s1.889-28.16 5.667-39.583c3.778-11.423 9.022-20.921 15.695-28.478s14.477-13.277 23.411-17.143 18.714-5.791 29.325-5.791c9.657 0 18.679 1.607 27.030 4.82s15.837 8.051 22.44 14.477l-20.039 17.62c-4.184-4.679-8.81-8.051-13.877-10.134s-10.505-3.143-16.296-3.143-11.317 1.236-16.543 3.743-9.905 6.426-14.001 11.829-7.327 12.341-9.657 20.886-3.584 18.82-3.743 30.897c0.159 12.394 1.448 22.846 3.866 31.373s5.773 15.501 10.028 20.904zM556.703 93.767c-5.544 4.025-11.546 7.45-17.991 10.258s-12.394 5.703-17.867 8.686-10.046 6.426-13.753 10.381-5.544 9.145-5.544 15.572c0 2.578 0.636 5.279 1.924 8.086s3.054 5.35 5.314 7.609 4.82 4.131 7.733 5.667 5.95 2.454 9.181 2.772c5.791 0.477 10.54 0.565 14.248 0.247s6.674-0.883 8.934-1.695 3.99-1.607 5.191-2.419 2.295-1.448 3.266-1.924c0.159 0.159 0.636 0.971 1.448 2.419s1.783 3.266 2.895 5.438c1.13 2.172 2.33 4.502 3.619 6.991s2.419 4.785 3.372 6.886c-4.679 3.054-10.77 5.279-18.344 6.638s-15.060 2.048-22.44 2.048c-7.239 0-14.124-1.112-20.639-3.372s-12.217-5.526-17.143-9.781-8.81-9.446-11.705-15.572-4.343-13.118-4.343-20.992c0-8.686 1.836-15.925 5.544-21.716s8.369-10.823 14.001-15.078 11.67-7.962 18.097-11.105 12.429-6.268 17.991-9.41 10.169-6.638 13.877-10.505 5.544-8.527 5.544-14.001c0-9.022-2.613-15.819-7.839-20.392s-12.765-6.886-22.563-6.886c-3.231 0-6.674 0.335-10.381 0.971s-7.398 1.483-11.105 2.542-7.274 2.172-10.734 3.372-6.303 2.454-8.563 3.743l-5.067-20.762c2.737-2.419 6.003-4.467 9.781-6.162s7.751-3.019 11.953-3.99 8.333-1.66 12.429-2.048 8.086-0.6 11.953-0.6c9.022 0 17.055 1.359 24.135 4.096s13.030 6.391 17.867 10.982 8.563 9.905 11.229 15.925 3.99 12.27 3.99 18.714c0 9.498-1.836 17.267-5.544 23.287s-8.386 11.052-13.948 15.078zM687.528 93.767c-5.544 4.025-11.546 7.45-17.991 10.258s-12.394 5.703-17.867 8.686-10.046 6.426-13.753 10.381-5.544 9.145-5.544 15.572c0 2.578 0.636 5.279 1.924 8.086s3.054 5.35 5.314 7.609 4.82 4.131 7.733 5.667 5.95 2.454 9.181 2.772c5.791 0.477 10.54 0.565 14.248 0.247s6.674-0.883 8.934-1.695 3.99-1.607 5.191-2.419 2.295-1.448 3.266-1.924c0.159 0.159 0.636 0.971 1.448 2.419s1.783 3.266 2.895 5.438 2.33 4.502 3.619 6.991 2.419 4.785 3.372 6.886c-4.679 3.054-10.77 5.279-18.344 6.638s-15.060 2.048-22.44 2.048c-7.239 0-14.124-1.112-20.639-3.372s-12.217-5.526-17.143-9.781-8.81-9.446-11.705-15.572-4.343-13.118-4.343-20.992c0-8.686 1.836-15.925 5.544-21.716s8.369-10.823 14.001-15.078 11.67-7.962 18.097-11.105 12.429-6.268 17.991-9.41 10.169-6.638 13.877-10.505 5.544-8.527 5.544-14.001c0-9.022-2.613-15.819-7.839-20.392s-12.765-6.886-22.563-6.886c-3.231 0-6.674 0.335-10.381 0.971s-7.398 1.483-11.105 2.542-7.274 2.172-10.734 3.372-6.303 2.454-8.563 3.743l-5.067-20.762c2.737-2.419 6.003-4.467 9.781-6.162s7.751-3.019 11.953-3.99 8.333-1.66 12.429-2.048 8.086-0.6 11.953-0.6c9.022 0 17.055 1.359 24.135 4.096s13.030 6.391 17.867 10.982 8.563 9.905 11.229 15.925 3.99 12.27 3.99 18.714c0 9.498-1.836 17.267-5.544 23.287s-8.386 11.052-13.948 15.078zM361.931 606.897v70.621c0 9.728 7.91 17.655 17.655 17.655 9.763 0 17.655 7.91 17.655 17.655s-7.892 17.655-17.655 17.655c-29.202 0-52.966-23.764-52.966-52.966v-70.621c0-19.474-15.837-35.31-35.31-35.31-9.763 0-17.655-7.91-17.655-17.655s7.892-17.655 17.655-17.655c19.474 0 35.31-15.837 35.31-35.31v-70.621c0-29.202 23.764-52.966 52.966-52.966 9.763 0 17.655 7.91 17.655 17.655s-7.892 17.655-17.655 17.655c-9.746 0-17.655 7.927-17.655 17.655v70.621c0 21.186-9.569 40.007-24.399 52.966 14.83 12.959 24.399 31.779 24.399 52.966z" />
<glyph unicode="&#xe907;" glyph-name="photoshop" d="M793.107 960h-562.214c-127.317 0-230.893-103.576-230.893-230.893v-562.214c0-127.317 103.576-230.893 230.893-230.893h562.214c127.317 0 230.893 103.576 230.893 230.893v562.214c0 127.317-103.576 230.893-230.893 230.893zM986.074 166.893c0-106.401-86.566-192.967-192.967-192.967h-562.214c-106.401 0-192.967 86.566-192.967 192.967v562.214c0 106.401 86.566 192.967 192.967 192.967h562.214c106.401 0 192.967-86.566 192.967-192.967v-562.214zM377.742 732.444h-182.803v-530.963h54.613v174.459h133.499c25.79 0 48.033 4.665 66.75 14.033 18.697 9.349 32.616 20.196 41.719 32.616 9.102 12.383 16.308 28.312 21.618 47.787 5.31 19.456 8.457 35.65 9.481 48.564 1.005 12.895 1.517 28.179 1.517 45.89 0 50.062-12.023 90.51-36.030 121.344-24.026 30.853-60.814 46.27-110.364 46.27zM469.144 531.437c-0.265-7.585-2.029-18.963-5.31-34.152-3.281-15.17-7.851-26.795-13.653-34.892-5.822-8.097-15.057-15.663-27.686-22.756-12.648-7.054-28.065-10.6-46.27-10.6h-126.673v250.311h123.639c64.209 0 96.332-38.438 96.332-115.295 0-14.165-0.133-25.031-0.379-32.616zM781.653 401.73c-19.987 8.097-40.088 15.417-60.302 21.997-20.233 6.58-38.438 14.658-54.613 24.273-16.194 9.595-24.273 22.756-24.273 39.443 0 15.17 6.447 27.686 19.342 37.528 12.895 9.88 32.484 14.791 58.785 14.791 26.283 0 47.521-6.334 63.716-18.963l17.446 47.806-9.102 5.31c-6.068 3.546-16.194 7.206-30.341 10.999-14.165 3.793-29.336 5.689-45.511 5.689-46.023 0-79.265-10.98-99.745-32.977s-30.72-45.777-30.72-71.32 9.349-47.142 28.065-64.853c15.17-15.17 32.749-26.302 52.717-33.375 19.968-7.092 39.822-13.786 59.544-20.101 19.721-6.334 36.409-14.924 50.062-25.79s20.48-25.543 20.48-43.994-7.964-32.616-23.893-42.458c-15.929-9.88-34.778-14.791-56.51-14.791s-40.96 5.177-57.647 15.55c-16.687 10.354-26.055 24.898-28.065 43.615l-53.096-2.276c1.005-30.341 13.9-55.884 38.684-76.61 24.766-20.727 59.032-31.099 102.779-31.099 43.729 0 76.99 10.505 99.745 31.46 22.756 20.973 34.133 45.625 34.133 73.956 0 28.312-6.959 51.067-20.859 68.267s-30.853 29.829-50.821 37.926z" />
<glyph unicode="&#xe908;" glyph-name="illustrator" d="M793.107 960h-562.214c-127.317 0-230.893-103.576-230.893-230.893v-562.214c0-127.317 103.576-230.893 230.893-230.893h562.214c127.317 0 230.893 103.576 230.893 230.893v562.214c0 127.317-103.576 230.893-230.893 230.893zM986.074 166.893c0-106.401-86.566-192.967-192.967-192.967h-562.214c-106.401 0-192.967 86.566-192.967 192.967v562.214c0 106.401 86.566 192.967 192.967 192.967h562.214c106.401 0 192.967-86.566 192.967-192.967v-562.214zM376.225 732.444l-156.255-530.963h59.164l50.062 171.425h157.772l52.338-171.425h61.44l-161.564 530.963h-62.957zM343.609 429.037l63.716 215.419 65.991-215.419h-129.707zM698.956 740.030c-8.344 0-15.682-3.167-21.997-9.481-6.334-6.334-9.481-13.54-9.481-21.637s3.148-15.303 9.481-21.618c6.315-6.334 13.653-9.481 21.997-9.481s15.55 3.034 21.618 9.083c6.068 6.068 9.102 13.407 9.102 21.997s-3.015 15.967-9.083 22.035c-6.068 6.068-13.274 9.102-21.637 9.102zM670.511 581.499h54.613v-380.018h-54.613v380.018z" />
<glyph unicode="&#xe909;" glyph-name="html" d="M899.513 744.836l-191.823 191.841c-0.018 0.018-0.018 0.018-0.018 0.018l-13.612 13.612c-6.268 6.25-14.583 9.693-23.428 9.693h-512.388c-20.957 0-43.485-16.172-43.485-51.659v-937.031c0-14.777 14.848-29.166 32.415-33.704 0.9-0.247 1.766-0.583 2.684-0.759 2.754-0.547 5.561-0.847 8.386-0.847h707.513c2.825 0 5.632 0.3 8.386 0.847 0.918 0.177 1.783 0.512 2.684 0.759 17.567 4.537 32.415 18.926 32.415 33.704v741.906c0 13.542-1.642 23.552-9.728 31.62zM697.379 897.059l148.921-148.921h-148.921v148.921zM158.243-28.69c-1.254 0-2.383 0.441-3.496 0.865-2.737 1.306-4.679 4.061-4.679 7.309v256.653h723.862v-256.653c0-3.249-1.942-6.003-4.679-7.309-1.112-0.424-2.242-0.865-3.496-0.865h-707.513zM150.069 271.448v636.893c0 3.831 0.583 16.349 8.174 16.349h504.85c-0.583-2.225-1.024-4.52-1.024-6.903v-204.959h204.941c2.383 0 4.679 0.441 6.903 1.024 0-0.265 0.018-0.371 0.018-0.636v-441.768h-723.862zM296.854 106.549h-76.994v77.965h-29.449v-177.894h29.449v80.137h76.994v-80.137h28.972v177.894h-28.972zM360.836 164.723h53.089v-158.102h29.219v158.102h53.089v19.791h-135.398zM613.076 62.87l-52.877 121.644h-29.431v-177.894h29.431v122.386l40.077-98.975h25.582l39.83 98.975v-122.386h29.449v177.894h-29.449zM769.236 184.514h-29.449v-177.894h111.281v21.963h-81.832zM427.379 654.689c-6.903 6.903-18.061 6.903-24.964 0l-105.931-105.931c-6.903-6.903-6.903-18.061 0-24.964l105.931-105.931c3.443-3.443 7.962-5.173 12.482-5.173s9.039 1.73 12.482 5.173c6.903 6.903 6.903 18.061 0 24.964l-93.449 93.449 93.449 93.449c6.903 6.903 6.903 18.061 0 24.964zM639.241 654.689c-6.903 6.903-18.061 6.903-24.964 0s-6.903-18.061 0-24.964l93.449-93.449-93.449-93.449c-6.903-6.903-6.903-18.061 0-24.964 3.443-3.443 7.962-5.173 12.482-5.173s9.039 1.73 12.482 5.173l105.931 105.931c6.903 6.903 6.903 18.061 0 24.964l-105.931 105.931z" />
<glyph unicode="&#xe90a;" glyph-name="wordpress-logo-button" d="M512 960c-282.307 0-512-229.704-512-512 0-282.317 229.693-512 512-512 282.296 0 512 229.683 512 512 0 282.296-229.704 512-512 512zM512 936.643c269.363 0 488.325-219.29 488.325-488.643 0-269.363-218.962-488.325-488.325-488.325-269.353 0-488.325 218.962-488.325 488.325 0 269.353 218.972 488.643 488.325 488.643zM512 887.040c-153.446 0-288.512-78.531-367.043-197.755 10.312-0.328 20.244-0.635 28.477-0.635 45.926 0 116.797 5.755 116.797 5.755 23.665 1.382 26.532-33.362 2.877-36.157 0 0-23.777-3.092-50.237-4.485l160-475.525 96 288.317-68.485 187.197c-23.665 1.393-46.080 4.485-46.080 4.485-23.675 1.403-20.797 37.55 2.877 36.157 0 0 72.366-5.755 115.517-5.755 45.916 0 117.125 5.755 117.125 5.755 23.675 1.382 26.563-33.362 2.877-36.157 0 0-23.798-3.092-50.237-4.485l158.73-471.992 43.837 146.555c18.964 60.785 33.577 104.182 33.577 141.763 0 54.303-19.436 92.027-36.137 121.283-22.262 36.198-43.223 66.847-43.223 103.035 0 40.366 30.484 77.763 73.605 77.763 1.935 0 3.871-0.215 5.755-0.317-78.111 71.598-182.272 115.2-296.612 115.2zM897.28 658.883c1.884-13.988 3.195-29.266 3.195-45.445 0-44.554-8.54-94.464-33.597-157.123l-134.083-387.83c130.56 76.124 218.245 217.487 218.245 379.515 0 76.36-19.476 148.326-53.76 210.883zM110.715 626.883c-24.361-54.62-37.755-115.21-37.755-178.883 0-173.844 100.844-324.024 247.357-395.203l-209.603 574.085zM519.68 409.6l-131.84-383.037c39.363-11.581 81.060-17.603 124.16-17.603 51.139 0 100.27 8.581 145.92 24.637-1.157 1.884-2.324 3.912-3.195 6.083l-135.045 369.92z" />
<glyph unicode="&#xe90b;" glyph-name="cross-out" d="M1023.977 928.087l-31.863 31.913-480.114-480.082-480.082 480.082-31.895-31.913 480.082-480.078-480.082-480.082 31.895-31.927 480.082 480.146 480.114-480.146 31.863 31.927-480.082 480.082z" />
<glyph unicode="&#xe90c;" glyph-name="instagram-logo" d="M511.979 345.501c56.488 0 102.54 45.97 102.54 102.499 0 22.315-7.301 42.918-19.386 59.746-18.623 25.821-48.898 42.753-83.092 42.753-34.214 0-64.469-16.911-83.133-42.732-12.127-16.829-19.366-37.432-19.386-59.746-0.062-56.529 45.949-102.52 102.458-102.52zM735.807 573.391v98.704l-98.725-0.309 0.33-98.725zM512 960c-282.316 0-512-229.684-512-512 0-282.295 229.684-512 512-512 282.295 0 512 229.705 512 512 0 282.316-229.664 512-512 512zM803.184 507.746v-238.408c0-62.097-50.486-112.563-112.543-112.563h-357.282c-62.077 0-112.543 50.466-112.543 112.563v357.282c0 62.077 50.466 112.543 112.543 112.543h357.262c62.077 0 112.563-50.466 112.563-112.543v-118.874zM671.276 448c0-87.794-71.44-159.276-159.276-159.276s-159.255 71.481-159.255 159.276c0 21.119 4.207 41.309 11.714 59.746h-86.928v-238.408c0-30.812 25.016-55.766 55.807-55.766h357.262c30.75 0 55.807 24.954 55.807 55.766v238.408h-86.969c7.569-18.437 11.838-38.628 11.838-59.746z" />
<glyph unicode="&#xe90d;" glyph-name="twitter-logo-button" d="M512 960c-282.316 0-512-229.684-512-512 0-282.295 229.684-512 512-512 282.295 0 512 229.705 512 512 0 282.316-229.664 512-512 512zM740.406 565.183c0.227-5.073 0.351-10.188 0.351-15.303 0-155.728-118.503-335.236-335.318-335.236-66.552 0-128.505 19.448-180.642 52.899 9.219-1.093 18.602-1.65 28.11-1.65 55.23 0 106.026 18.85 146.365 50.445-51.559 0.949-95.095 35.019-110.088 81.855 7.177-1.361 14.581-2.124 22.15-2.124 10.745 0 21.18 1.402 31.059 4.104-53.91 10.807-94.518 58.426-94.518 115.554 0 0.495 0 1.011 0.021 1.485 15.88-8.806 34.049-14.127 53.353-14.725-31.595 21.098-52.404 57.189-52.404 98.065 0 21.613 5.795 41.866 15.942 59.272 58.097-71.316 144.963-118.214 242.883-123.164-2.021 8.641-3.032 17.613-3.032 26.872 0 65.067 52.755 117.843 117.822 117.843 33.905 0 64.49-14.313 86.021-37.205 26.872 5.28 52.033 15.055 74.863 28.605-8.868-27.532-27.491-50.61-51.889-65.212 23.861 2.846 46.63 9.157 67.686 18.541-15.715-23.593-35.699-44.361-58.736-60.922z" />
<glyph unicode="&#xe90e;" glyph-name="facebook-logo-button" d="M512 960c-282.316 0-512-229.684-512-512 0-282.295 229.684-512 512-512 282.295 0 512 229.705 512 512 0 282.316-229.664 512-512 512zM639.33 429.975h-83.298c0-133.084 0-296.896 0-296.896h-123.432c0 0 0 162.225 0 296.896h-58.674v104.933h58.674v67.872c0 48.61 23.098 124.566 124.566 124.566l91.465-0.351v-101.86c0 0-55.58 0-66.387 0s-26.171-5.403-26.171-28.584v-61.664h94.043l-10.786-104.912z" />
<glyph unicode="&#xe90f;" glyph-name="google-plus-logo-button" d="M443.406 363.155c-3.32 2.207-6.723 4.599-10.291 7.012-10.374 3.176-21.387 4.826-32.668 4.97h-1.361c-51.848 0-97.302-31.368-97.302-67.171 0-38.978 38.958-69.439 88.661-69.439 65.562 0 98.787 22.645 98.787 67.191 0 4.207-0.495 8.579-1.547 12.972-4.434 17.283-20.294 28.069-44.279 44.464zM406.676 499.023c0.041 0 0.041 0 0.041 0 12.395 0 22.851 4.888 30.956 14.168 12.704 14.478 18.334 38.236 14.993 63.459-5.878 45.083-38.112 82.618-71.749 83.587l-1.341 0.041c-11.9 0-22.521-4.908-30.585-14.148-12.518-14.292-17.819-36.937-14.54-62.118 5.898-45.042 38.814-83.958 71.749-84.99h0.474zM512 960c-282.316 0-512-229.684-512-512 0-282.295 229.684-512 512-512 282.295 0 512 229.705 512 512 0 282.316-229.664 512-512 512zM452.975 198.682c-19.345-5.589-40.278-8.414-62.242-8.414-24.46 0-47.97 2.805-69.893 8.353-42.423 10.704-73.77 30.997-88.413 57.148-6.311 11.302-9.507 23.346-9.507 35.823 0 12.848 3.073 25.883 9.136 38.793 23.243 49.538 84.515 82.865 152.387 82.865 0.681 0 1.32 0 1.939 0-5.506 9.714-8.167 19.778-8.167 30.358 0 5.259 0.701 10.621 2.104 16.086-71.192 1.609-124.463 53.745-124.463 122.483 0 48.527 38.793 95.817 94.27 114.914 16.602 5.733 33.534 8.662 50.177 8.662h152.243c5.177 0 9.776-3.362 11.384-8.291 1.609-4.908-0.165-10.312-4.352-13.343l-34.049-24.645c-2.042-1.444-4.496-2.227-7.033-2.227h-12.189c15.736-18.871 24.954-45.784 24.954-75.998 0-33.348-16.87-64.882-47.579-88.908-23.717-18.479-24.645-23.573-24.645-34.111 0.289-5.795 16.808-24.707 35.039-37.597 42.464-30.028 58.262-59.499 58.262-108.665-0.021-51.373-39.020-95.755-99.364-113.285zM796.79 459.817c0-6.6-5.383-11.962-11.962-11.962h-86.516v-86.557c0-6.6-5.383-11.962-11.92-11.962h-24.645c-6.641 0-12.003 5.362-12.003 11.962v86.557h-86.454c-6.6 0-11.962 5.321-11.962 11.962v24.604c0 6.6 5.362 12.003 11.962 12.003h86.454v86.475c0 6.62 5.362 11.962 12.003 11.962h24.645c6.538 0 11.92-5.341 11.92-11.962v-86.475h86.495c6.579 0 11.962-5.362 11.962-11.962v-24.645z" />
<glyph unicode="&#xe910;" glyph-name="plus-symbol" d="M36.441 411.559c-20.158 0-36.181 16.543-36.181 36.702s16.022 36.181 36.181 36.181h438.825v438.857c0.033 20.158 16.576 36.702 36.734 36.702s36.181-16.543 36.181-36.702v-438.857h438.825c20.158 0 36.702-16.022 36.702-36.181s-16.543-36.702-36.702-36.702h-438.825v-438.857c0-20.158-16.022-36.702-36.181-36.702s-36.702 16.543-36.702 36.702v438.857h-438.857z" />
<glyph unicode="&#xe911;" glyph-name="phone" d="M972.8 516.267c9.425 0 17.067 7.642 17.067 17.067v341.333c0 9.425-7.642 17.067-17.067 17.067h-358.4v51.2c0 9.425-7.642 17.067-17.067 17.067h-546.133c-9.425 0-17.067-7.642-17.067-17.067v-989.867c0-9.425 7.642-17.067 17.067-17.067h546.133c9.425 0 17.067 7.642 17.067 17.067v51.2h358.4c9.425 0 17.067 7.642 17.067 17.067v341.333c0 9.425-7.642 17.067-17.067 17.067h-358.4v136.533h358.4zM68.267 925.867h512v-34.133h-51.2c-9.425 0-17.067-7.642-17.067-17.067v-51.2h-443.733v102.4zM68.267 789.333h443.733v-256c0-9.425 7.642-17.067 17.067-17.067h51.2v-136.533h-51.2c-9.425 0-17.067-7.642-17.067-17.067v-256h-443.733v682.667zM580.267-29.867h-512v102.4h443.733v-51.2c0-9.425 7.642-17.067 17.067-17.067h51.2v-34.133zM955.733 345.6v-307.2h-409.6v307.2h409.6zM546.133 550.4v307.2h409.6v-307.2h-409.6zM341.333 891.733h34.133v-34.133h-34.133v34.133zM273.067 891.733h34.133v-34.133h-34.133v34.133zM451.994 686.95c-28.495 42.665-76.42 68.273-127.727 68.25-84.783 0.038-153.545-68.661-153.583-153.446-0.023-51.305 25.585-99.232 68.25-127.727v-230.827c-0.002-3.876 1.316-7.639 3.738-10.667l68.267-85.333c5.886-7.362 16.627-8.557 23.987-2.671 0.986 0.789 1.882 1.683 2.671 2.671l68.267 85.333c2.421 3.027 3.74 6.79 3.738 10.667v230.827c70.505 47.091 89.485 142.419 42.394 212.924zM324.267 185.173l-32.768 40.96h65.536l-32.768-40.96zM273.067 260.267v85.333h34.133v-85.333h-34.133zM375.467 260.267h-34.133v85.333h34.133v-85.333zM375.467 379.733h-102.4v34.133h102.4v-34.133zM427.727 541.971c-10.485-18.161-25.566-33.242-43.727-43.727v-0.017c-5.276-3.046-8.527-8.672-8.533-14.763v-35.465h-34.133v95.334l46.199 46.199-24.132 24.132-39.134-39.134-39.134 39.134-24.132-24.132 46.199-46.199v-95.334h-34.133v35.482c-0.006 6.091-3.258 11.716-8.533 14.763-57.139 32.99-76.717 106.054-43.727 163.194s106.054 76.717 163.194 43.727c57.139-32.988 76.717-106.052 43.727-163.194zM642.85 738.133l50.057 37.547-20.48 27.307-68.267-51.2c-7.541-5.655-9.069-16.352-3.413-23.893 0.971-1.293 2.121-2.443 3.413-3.413l68.267-51.2 20.48 27.307-50.057 37.547zM901.12 748.373c-0.971 1.293-2.121 2.443-3.413 3.413l-68.267 51.2-20.48-27.307 50.057-37.547-50.057-37.547 20.48-27.307 68.267 51.2c7.541 5.655 9.069 16.352 3.413 23.893zM700.965 659.048l68.285 170.647 31.689-12.681-68.285-170.647-31.689 12.681zM307.2 38.4h34.133v-34.133h-34.133v34.133zM597.333 618.667h34.133v-34.133h-34.133v34.133zM665.6 618.667h34.133v-34.133h-34.133v34.133zM733.867 618.667h34.133v-34.133h-34.133v34.133zM802.133 618.667h34.133v-34.133h-34.133v34.133zM870.4 618.667h34.133v-34.133h-34.133v34.133zM716.8 311.467h34.133v-34.133h-34.133v34.133zM785.067 311.467h136.533v-34.133h-136.533v34.133zM716.8 243.2h204.8v-34.133h-204.8v34.133zM580.267 174.933h341.333v-34.133h-341.333v34.133zM580.267 106.667h273.067v-34.133h-273.067v34.133zM665.6 311.467h-68.267c-9.425 0-17.067-7.642-17.067-17.067v-68.267c0-9.425 7.642-17.067 17.067-17.067h68.267c9.425 0 17.067 7.642 17.067 17.067v68.267c0 9.425-7.642 17.067-17.067 17.067zM648.533 243.2h-34.133v34.133h34.133v-34.133z" />
<glyph unicode="&#xe912;" glyph-name="vector" d="M875.353 613.164h-242.009l11.758 70.491-133.102 171.122-133.102-171.122 11.758-70.491h-242.009c-36.435 0-66.065-29.63-66.065-66.065v-429.418c0-36.435 29.63-66.065 66.065-66.065h214.709v-82.582h-66.065v-33.033h429.418v33.033h-66.065v82.582h214.709c36.435 0 66.065 29.63 66.065 66.065v429.418c0 36.435-29.63 66.065-66.065 66.065zM512 679.229c9.118 0 16.516-7.415 16.516-16.516s-7.398-16.516-16.516-16.516c-9.118 0-16.516 7.415-16.516 16.516s7.398 16.516 16.516 16.516zM495.484 779.728v-70.526c-19.177-6.836-33.033-25.007-33.033-46.511 0-27.317 22.232-49.549 49.549-49.549s49.549 22.232 49.549 49.549c0 21.504-13.856 39.671-33.033 46.511v70.526l81.607-104.925-29.53-177.251h-137.198l-29.53 177.251 81.618 104.925zM429.422 464.52h165.16c9.115 0 16.513-7.415 16.513-16.516s-7.398-16.516-16.516-16.516h-165.157c-9.118 0-16.516 7.415-16.516 16.516s7.398 16.516 16.516 16.516zM578.079 282.843h-132.145v115.611h132.127l0.017-115.611zM410.557 493.786c-17.987-7.45-30.688-25.139-30.688-45.782 0-21.504 13.856-39.671 33.033-46.511v-118.653c0-18.216 14.813-33.033 33.033-33.033h132.127c18.216 0 33.033 14.813 33.033 33.033v118.653c19.177 6.836 33.033 25.007 33.033 46.511 0 20.644-12.701 38.332-30.688 45.782l3.385 20.283h225.492v-363.353h-660.637v363.353h225.492l3.385-20.283zM627.611-30.96h-231.225v82.582h231.225v-82.582zM908.389 117.683v0c-0.003-18.216-14.817-33.033-33.036-33.033h-726.706c-18.216 0-33.033 14.813-33.033 33.033v429.418c0 18.216 14.813 33.033 33.033 33.033h247.509l5.501-33.033h-253.010v-429.418h726.706v429.418h-253.024l5.501 33.033h247.527c18.216 0 33.033-14.813 33.033-33.033v-429.418zM247.745 860.905c21.504 0 39.671 13.856 46.511 33.033h99.261c-58.4-35.048-99.989-94.999-110.096-165.16h-35.676v-99.095h99.095v99.091h-30.043c15.788 93.58 97.197 165.16 195.203 165.16s179.415-71.58 195.203-165.16h-30.043v-99.095h99.095v99.095h-35.676c-10.107 70.162-51.713 130.112-110.096 165.16h82.745c6.836-19.177 25.007-33.033 46.511-33.033 27.317 0 49.549 22.232 49.549 49.549s-22.229 49.549-49.546 49.549c-21.504 0-39.671-13.856-46.511-33.033h-418.978c-6.836 19.177-25.003 33.033-46.507 33.033-27.317 0-49.549-22.232-49.549-49.549s22.229-49.546 49.549-49.546zM313.807 662.713h-33.033v33.033h33.033v-33.033zM710.193 695.745h33.033v-33.033h-33.033v33.033zM759.742 926.967c9.118 0 16.516-7.415 16.516-16.516s-7.398-16.516-16.516-16.516c-9.118 0-16.516 7.415-16.516 16.516s7.398 16.516 16.516 16.516zM247.745 926.967c9.118 0 16.516-7.415 16.516-16.516s-7.398-16.516-16.516-16.516c-9.118 0-16.516 7.415-16.516 16.516s7.398 16.516 16.516 16.516zM644.127 332.392h33.033v-33.033h-33.033v33.033zM710.193 332.392h33.033v-33.033h-33.033v33.033zM776.258 332.392h33.033v-33.033h-33.033v33.033zM214.713 332.392h33.033v-33.033h-33.033v33.033zM280.775 332.392h33.033v-33.033h-33.033v33.033zM346.84 332.392h33.033v-33.033h-33.033v33.033z" />
<glyph unicode="&#xe913;" glyph-name="seo" d="M460.8 806.4h460.8v-34.133h-460.8v34.133zM460.8 738.133h290.133v-34.133h-290.133v34.133zM460.8 669.867h290.133v-34.133h-290.133v34.133zM597.333 874.667h324.267v-34.133h-324.267v34.133zM529.067 874.667h34.133v-34.133h-34.133v34.133zM494.933 277.333h34.133v-34.133h-34.133v34.133zM285.133 845.534l-24.132 24.132-34.133-34.133c-6.662-6.665-6.662-17.468 0-24.132l34.133-34.133 24.132 24.132-22.067 22.067 22.067 22.067zM421.666 835.533l-34.133 34.133-24.132-24.132 22.067-22.067-22.067-22.067 24.132-24.132 34.133 34.133c6.662 6.665 6.662 17.468 0 24.132zM290.989 777.685l34.165 102.398 32.363-10.798-34.165-102.398-32.363 10.798zM887.467 430.933v136.533h-34.133v-136.533h-34.133v170.667h-34.133v-170.667h-34.133v85.333h-34.133v-85.333h-34.133v102.4h-34.133v-102.4h-34.133v68.267h-34.133v-68.267h-34.133v-34.133h375.467v34.133zM904.533 960h-785.067c-56.531-0.055-102.345-45.869-102.4-102.4v-580.267c0.055-56.531 45.869-102.345 102.4-102.4h211.319l-68.267-136.533h-91.853c-28.277 0-51.2-22.923-51.2-51.2s22.923-51.2 51.2-51.2h682.667c28.277 0 51.2 22.923 51.2 51.2s-22.923 51.2-51.2 51.2h-91.853l-68.267 136.533h211.319c56.531 0.055 102.345 45.869 102.4 102.4v580.267c-0.055 56.531-45.869 102.345-102.4 102.4zM51.2 719.872l38.793-46.182c3.243-3.863 8.030-6.093 13.073-6.093h52.241c5.043 0 9.83 2.229 13.073 6.093l38.81 46.182 38.298-12.442 4.233-60.126c0.35-5.028 2.906-9.645 6.98-12.612l42.274-30.72c4.090-2.953 9.269-3.957 14.165-2.748l58.59 14.558 23.689-32.58-31.932-51.2c-2.645-4.292-3.258-9.534-1.673-14.319l16.162-49.681c1.555-4.791 5.146-8.653 9.813-10.547l55.945-22.682v-40.277l-55.979-22.682c-4.678-1.886-8.275-5.758-9.813-10.564l-5.12-15.65h-98.321c38.246 80.077 4.335 175.998-75.742 214.244-47.034 22.464-102.044 20.719-147.558-4.683v164.71zM51.2 514.56c55.202 43.066 134.865 33.227 177.929-21.978 33.25-42.62 35.817-101.636 6.391-146.982h-184.32v168.96zM853.333 4.267c9.425 0 17.067-7.642 17.067-17.067s-7.642-17.067-17.067-17.067h-682.667c-9.425 0-17.067 7.642-17.067 17.067s7.642 17.067 17.067 17.067h682.667zM723.319 38.4h-422.639l68.267 136.533h286.106l68.267-136.533zM972.8 277.333c0-37.702-30.564-68.267-68.267-68.267h-785.067c-37.702 0-68.267 30.564-68.267 68.267v34.133h921.6v-34.133zM972.8 345.6h-558.848l53.265 21.589c6.434 2.611 10.645 8.86 10.65 15.804v63.3c0.002 6.95-4.209 13.207-10.65 15.821l-59.324 23.996-11.23 34.56 33.826 54.272c3.669 5.897 3.398 13.427-0.683 19.046l-37.205 51.2c-4.085 5.626-11.172 8.211-17.92 6.537l-62.054-15.36-29.321 21.299-4.489 63.659c-0.489 6.94-5.141 12.89-11.759 15.036l-60.16 19.558c-6.62 2.108-13.856 0.028-18.347-5.274l-41.079-48.896h-36.403l-41.097 48.896c-4.493 5.308-11.74 7.39-18.364 5.274l-0.41-0.154v101.837c0 37.702 30.564 68.267 68.267 68.267h785.067c37.702 0 68.267-30.564 68.267-68.267v-512z" />
<glyph unicode="&#xe914;" glyph-name="computer-graphic" d="M976 944h-928c-26.51 0-48-21.49-48-48v-704c0-8.836 7.164-16 16-16h364.48l-25.6-128h-34.88c-8.836 0-16-7.164-16-16v-48h-32v-32h480v32h-32v48c0 8.836-7.164 16-16 16h-34.906l-25.6 128h364.506c8.836 0 16 7.164 16 16v704c0 26.51-21.49 48-48 48zM656 16h32v-32h-352v32h320zM387.52 48l25.576 128h197.784l25.6-128h-248.96zM992 208h-960v144h960v-144zM768 800h-128c-8.836 0-16-7.164-16-16v-144h32v128h96v-64h-64v-32h64v-80h-64v-32h64v-80h-64v-32h64v-64h-96v128h-32v-128h-64v80c0 65.296 79.296 79.648 82.624 80.224 1.972 0.33 3.864 1.026 5.58 2.054 7.582 4.54 10.048 14.366 5.508 21.946l-144 240c-1.16 1.692-2.622 3.154-4.314 4.314-7.572 5.19-17.92 3.26-23.11-4.314l-144-240c-1.022-1.704-1.718-3.584-2.050-5.544-1.482-8.712 4.378-16.974 13.090-18.456 3.376-0.576 82.672-14.928 82.672-80.224v-80h-64v128h-32v-128h-16v288h16v-32h32v48c0.004 2.168-0.436 4.314-1.296 6.304l-48 112c-1.618 3.772-4.624 6.778-8.396 8.396-8.12 3.484-17.528-0.276-21.012-8.396l-48-112c-0.86-1.99-1.3-4.136-1.296-6.304v-304h-128v448h800v-448h-128v400c0 8.836-7.164 16-16 16zM464 432v16h64v-16h-64zM528 400v-16h-64v16h64zM462.832 480c-7.664 50.88-51.232 78.4-86.080 90.16l103.248 172.070v-134.23h32v134.23l103.248-172.070c-34.88-11.68-78.416-39.28-86.080-90.16h-66.336zM280.23 704l23.77 55.456 23.77-55.456h-47.54zM288 672v-288h-16v288h16zM992 384h-48v464c0 8.836-7.164 16-16 16h-832c-8.836 0-16-7.164-16-16v-464h-48v512c0 8.836 7.164 16 16 16h928c8.836 0 16-7.164 16-16v-512zM512 336c-26.51 0-48-21.49-48-48s21.49-48 48-48 48 21.49 48 48-21.49 48-48 48zM512 272c-8.836 0-16 7.164-16 16s7.164 16 16 16c8.836 0 16-7.164 16-16s-7.164-16-16-16z" />
<glyph unicode="&#xe915;" glyph-name="smartphone" d="M704 960h-384c-44.16-0.052-79.948-35.84-80-80v-864c0.052-44.16 35.84-79.948 80-80h384c44.16 0.052 79.948 35.84 80 80v864c-0.052 44.16-35.84 79.948-80 80zM752 16c0-26.51-21.49-48-48-48h-384c-26.51 0-48 21.49-48 48v96h480v-96zM752 144h-480v640h480v-640zM752 816h-480v64c0 26.51 21.49 48 48 48h384c26.51 0 48-21.49 48-48v-64zM512 96c-26.51 0-48-21.49-48-48s21.49-48 48-48 48 21.49 48 48-21.49 48-48 48zM512 32c-8.836 0-16 7.164-16 16s7.164 16 16 16 16-7.164 16-16-7.164-16-16-16zM576 880h-128c-8.836 0-16-7.164-16-16s7.164-16 16-16h128c8.836 0 16 7.164 16 16s-7.164 16-16 16zM704 208h-16c-8.836 0-16-7.164-16-16s7.164-16 16-16h16c8.836 0 16 7.164 16 16s-7.164 16-16 16zM640 208h-16c-8.836 0-16-7.164-16-16s7.164-16 16-16h16c8.836 0 16 7.164 16 16s-7.164 16-16 16zM576 208h-16c-8.836 0-16-7.164-16-16s7.164-16 16-16h16c8.836 0 16 7.164 16 16s-7.164 16-16 16z" />
<glyph unicode="&#xe916;" glyph-name="mail" d="M829.086 249.751c-4.061 0-8.123 1.486-11.293 4.491l-189.994 178.239c-6.637 6.208-6.967 16.675-0.726 23.312 6.241 6.703 16.642 7 23.345 0.726l189.994-178.239c6.637-6.208 6.967-16.675 0.726-23.312-3.269-3.467-7.627-5.217-12.052-5.217zM194.881 249.751c-4.392 0-8.783 1.75-12.052 5.217-6.241 6.637-5.91 17.104 0.726 23.312l190.060 178.239c6.67 6.208 17.137 5.944 23.345-0.726 6.241-6.637 5.91-17.104-0.726-23.312l-190.060-178.239c-3.17-3.005-7.231-4.491-11.293-4.491zM941.451 84.026h-858.903c-45.501 0-82.549 37.015-82.549 82.549v562.883c0 45.534 37.048 82.549 82.549 82.549h858.903c45.501 0 82.549-37.015 82.549-82.549v-562.883c0-45.534-37.048-82.549-82.549-82.549zM82.549 778.987c-27.307 0-49.529-22.222-49.529-49.529v-562.883c0-27.307 22.222-49.529 49.529-49.529h858.903c27.307 0 49.529 22.222 49.529 49.529v562.883c0 27.307-22.222 49.529-49.529 49.529h-858.903zM512 365.055c-21.958 0-43.916 7.297-60.624 21.859l-423.97 369.851c-6.868 5.977-7.594 16.411-1.618 23.312 6.043 6.868 16.444 7.495 23.312 1.585l423.97-369.818c21.099-18.392 56.76-18.392 77.827 0l423.442 369.224c6.835 5.977 17.236 5.316 23.312-1.585 5.977-6.901 5.283-17.302-1.585-23.312l-423.442-369.224c-16.741-14.595-38.666-21.892-60.624-21.892z" />
<glyph unicode="&#xe917;" horiz-adv-x="1140" d="M894.998 605.277c-10.707 3.673-21.506 7.076-32.385 10.204 1.804 7.331 3.472 14.694 5.005 22.087 24.514 118.998 8.486 214.862-46.249 246.419-52.478 30.266-138.307-1.291-224.99-76.724-8.541-7.45-16.894-15.114-25.048-22.987-5.461 5.234-11.018 10.367-16.669 15.396-90.847 80.664-181.907 114.652-236.584 83.002-52.429-30.35-67.958-120.476-45.889-233.25 2.196-11.168 4.675-22.278 7.435-33.32-12.884-3.66-25.328-7.56-37.233-11.709-106.505-37.131-174.525-95.33-174.525-155.692 0-62.348 73.015-124.884 183.955-162.798 8.995-3.060 18.066-5.896 27.203-8.503-2.969-11.896-5.604-23.873-7.903-35.916-21.041-110.815-4.608-198.803 47.683-228.967 54.009-31.143 144.655 0.868 232.924 78.025 6.977 6.1 13.98 12.568 20.992 19.349 8.832-8.521 17.901-16.796 27.194-24.812 85.499-73.572 169.94-103.282 222.186-73.038 53.96 31.237 71.493 125.761 48.724 240.765-1.737 8.784-3.762 17.755-6.032 26.891 6.366 1.879 12.613 3.82 18.708 5.842 115.329 38.209 190.361 99.982 190.361 163.163-0.002 60.58-70.212 119.171-178.863 156.574v0z" />
<glyph unicode="&#xe918;" horiz-adv-x="1140" d="M869.982 326.331c-5.499-1.82-11.144-3.579-16.896-5.285-12.733 40.305-29.918 83.166-50.941 127.443 20.066 43.23 36.583 85.54 48.961 125.587 10.289-2.983 20.279-6.122 29.905-9.438 93.095-32.042 149.878-79.427 149.878-115.934 0-38.89-61.329-89.378-160.901-122.373h-0.005zM828.666 244.46c10.066-50.853 11.504-96.83 4.835-132.773-5.993-32.296-18.040-53.827-32.937-62.451-31.704-18.352-99.506 5.503-172.62 68.421-8.383 7.212-16.829 14.915-25.297 23.062 28.347 31.005 56.677 67.050 84.325 107.075 48.635 4.314 94.582 11.371 136.25 21.001 2.048-8.281 3.873-16.397 5.445-24.335v0zM410.829 52.406c-30.974-10.939-55.643-11.251-70.554-2.653-31.735 18.299-44.922 88.954-26.931 183.719 2.139 11.199 4.589 22.337 7.346 33.4 41.205-9.113 86.818-15.672 135.569-19.625 27.831-39.166 56.979-75.166 86.354-106.692-6.243-6.039-12.634-11.924-19.166-17.649-39.032-34.121-78.145-58.323-112.613-70.5h-0.005zM265.719 326.571c-49.054 16.767-89.564 38.556-117.333 62.33-24.95 21.371-37.55 42.585-37.55 59.802 0 36.628 54.615 83.353 145.702 115.111 11.433 3.969 22.979 7.602 34.625 10.895 12.591-40.947 29.104-83.759 49.032-127.052-20.186-43.939-36.935-87.432-49.642-128.859-8.34 2.388-16.621 4.979-24.834 7.773zM314.364 657.679c-18.909 96.626-6.354 169.512 25.243 187.802 33.658 19.483 108.077-8.299 186.515-77.944 5.013-4.453 10.049-9.113 15.093-13.935-29.224-31.383-58.105-67.112-85.695-106.051-47.313-4.385-92.605-11.429-134.242-20.863-2.565 10.272-4.871 20.608-6.914 30.996v-0.005zM748.304 550.529c-9.834 16.988-20.034 33.761-30.591 50.31 32.1-4.052 62.851-9.438 91.728-16.032-8.668-27.786-19.474-56.841-32.198-86.626-9.296 17.641-18.945 35.093-28.939 52.348v0zM571.343 722.891c19.821-21.473 39.673-45.452 59.201-71.466-39.611 1.872-79.288 1.881-118.9 0.027 19.545 25.773 39.567 49.717 59.699 71.439v0zM393.247 550.235c-9.869-17.118-19.337-34.464-28.396-52.023-12.515 29.682-23.223 58.867-31.966 87.049 28.703 6.425 59.312 11.673 91.203 15.659-10.675-16.651-20.958-33.551-30.84-50.684zM425.005 293.42c-32.946 3.677-64.018 8.66-92.712 14.906 8.882 28.681 19.825 58.493 32.608 88.812 9.097-17.573 18.607-34.929 28.521-52.055 10.116-17.47 20.646-34.695 31.584-51.663zM572.532 171.48c-20.369 21.98-40.684 46.289-60.528 72.437 19.26-0.757 38.899-1.14 58.858-1.14 20.507 0 40.777 0.459 60.727 1.349-19.59-26.624-39.371-50.968-59.058-72.646zM777.652 398.683c13.446-30.649 24.781-60.3 33.783-88.496-29.17-6.656-60.661-12.016-93.843-15.997 10.633 16.858 20.93 33.924 30.885 51.191 10.119 17.549 19.846 35.321 29.175 53.302v0zM711.248 366.851c-15.239-26.473-31.335-52.442-48.261-77.869-29.847-2.133-60.692-3.232-92.124-3.232-31.303 0-61.756 0.975-91.083 2.876-17.366 25.367-33.766 51.381-49.165 77.989-15.327 26.466-29.644 53.504-42.919 81.056 13.241 27.56 27.515 54.613 42.79 81.101v-0.009c15.27 26.493 31.542 52.397 48.778 77.655 29.918 2.262 60.594 3.446 91.604 3.446 31.147 0 61.863-1.193 91.772-3.473 17.062-25.219 33.229-51.033 48.47-77.392 15.328-26.428 29.792-53.349 43.369-80.718-13.437-27.648-27.855-54.809-43.226-81.43h-0.004zM799.904 846.759c33.685-19.429 46.788-97.774 25.622-200.517-1.387-6.693-2.896-13.36-4.524-19.999-41.735 9.63-87.058 16.798-134.509 21.25-27.644 39.362-56.284 75.153-85.037 106.131 7.534 7.264 15.248 14.339 23.133 21.219 74.271 64.636 143.685 90.157 175.314 71.916v0z" />
<glyph unicode="&#xe919;" horiz-adv-x="1140" d="M570.862 538.535c49.615 0 89.831-40.221 89.831-89.831 0-49.615-40.216-89.836-89.831-89.836-49.611 0-89.832 40.221-89.832 89.836 0 49.61 40.221 89.831 89.832 89.831z" />
<glyph unicode="&#xe91a;" glyph-name="Magento" horiz-adv-x="887" d="M443.839 960l-443.839-256.2v-511.716l126.698-73.248-0.892 511.832 317.136 183.062 317.147-183.062v-511.6l126.698 73.016v512.168zM506.687 118.952l-63.288-36.798-63.636 36.456v512.058l-126.588-73.132 0.226-511.832 189.882-109.704 190.108 109.704v511.832l-126.704 73.132z" />
<glyph unicode="&#xe91b;" horiz-adv-x="1020" d="M164.734 960h690.313c90.98 0 164.733-73.754 164.733-164.734v-694.533c0-90.98-73.754-164.734-164.733-164.734h-690.313c-90.98 0-164.734 73.754-164.734 164.734v694.533c0 90.98 73.754 164.734 164.734 164.734z" />
<glyph unicode="&#xe91c;" horiz-adv-x="1020" d="M517.591 519.165c26.043-0.001 45.791 5.664 59.242 16.994s20.176 28.040 20.177 50.134c-0.001 21.809-6.726 38.379-20.177 49.709-13.451 11.613-33.199 17.419-59.242 17.42h-91.439v-134.256l91.439-0.001zM523.173 241.731c33.199 0 58.097 6.939 74.697 20.819 16.885 13.878 25.328 34.839 25.328 62.879-0.001 27.474-8.3 48.009-24.899 61.605-16.6 13.878-41.642 20.818-75.126 20.819h-97.020v-166.121h97.020zM676.859 469.881c35.488-10.197 62.963-29.033 82.425-56.507 19.461-27.475 29.191-61.18 29.192-101.117-0.001-61.18-20.893-106.782-62.677-136.805s-105.321-45.035-190.606-45.035h-274.318v634.319h248.132c89.006-0.001 153.4-13.313 193.182-39.937 40.067-26.625 60.1-69.253 60.101-127.883-0.001-30.874-7.299-57.215-21.894-79.024-14.597-21.526-35.776-37.53-63.536-48.009z" />
</font>
</defs>
</svg>
