<svg xmlns="http://www.w3.org/2000/svg" style="display: none;"><symbol id="smartphone" viewBox="0 0 512 512"><title>smartphone</title><g> <g> <path d="M352,0H160c-22.08,0.026-39.974,17.92-40,40v432c0.026,22.08,17.92,39.974,40,40h192c22.08-0.026,39.974-17.92,40-40V40 C391.974,17.92,374.08,0.026,352,0z M376,472c0,13.255-10.745,24-24,24H160c-13.255,0-24-10.745-24-24v-48h240V472z M376,408H136 V88h240V408z M376,72H136V40c0-13.255,10.745-24,24-24h192c13.255,0,24,10.745,24,24V72z"/> </g> </g><g> <g> <path d="M256,432c-13.255,0-24,10.745-24,24s10.745,24,24,24s24-10.745,24-24S269.255,432,256,432z M256,464c-4.418,0-8-3.582-8-8 s3.582-8,8-8s8,3.582,8,8S260.418,464,256,464z"/> </g> </g><g> <g> <path d="M288,40h-64c-4.418,0-8,3.582-8,8s3.582,8,8,8h64c4.418,0,8-3.582,8-8S292.418,40,288,40z"/> </g> </g><g> <g> <path d="M352,376h-8c-4.418,0-8,3.582-8,8s3.582,8,8,8h8c4.418,0,8-3.582,8-8S356.418,376,352,376z"/> </g> </g><g> <g> <path d="M320,376h-8c-4.418,0-8,3.582-8,8s3.582,8,8,8h8c4.418,0,8-3.582,8-8S324.418,376,320,376z"/> </g> </g><g> <g> <path d="M288,376h-8c-4.418,0-8,3.582-8,8s3.582,8,8,8h8c4.418,0,8-3.582,8-8S292.418,376,288,376z"/> </g> </g></symbol><symbol id="mail" viewBox="0 0 31.012 31.012"><title>mail</title><g> <path d="M25.109,21.51c-0.123,0-0.246-0.045-0.342-0.136l-5.754-5.398c-0.201-0.188-0.211-0.505-0.022-0.706 c0.189-0.203,0.504-0.212,0.707-0.022l5.754,5.398c0.201,0.188,0.211,0.505,0.022,0.706C25.375,21.457,25.243,21.51,25.109,21.51z "/> <path d="M5.902,21.51c-0.133,0-0.266-0.053-0.365-0.158c-0.189-0.201-0.179-0.518,0.022-0.706l5.756-5.398 c0.202-0.188,0.519-0.18,0.707,0.022c0.189,0.201,0.179,0.518-0.022,0.706l-5.756,5.398C6.148,21.465,6.025,21.51,5.902,21.51z"/> </g><path d="M28.512,26.529H2.5c-1.378,0-2.5-1.121-2.5-2.5V6.982c0-1.379,1.122-2.5,2.5-2.5h26.012c1.378,0,2.5,1.121,2.5,2.5v17.047 C31.012,25.408,29.89,26.529,28.512,26.529z M2.5,5.482c-0.827,0-1.5,0.673-1.5,1.5v17.047c0,0.827,0.673,1.5,1.5,1.5h26.012 c0.827,0,1.5-0.673,1.5-1.5V6.982c0-0.827-0.673-1.5-1.5-1.5H2.5z"/><path d="M15.506,18.018c-0.665,0-1.33-0.221-1.836-0.662L0.83,6.155C0.622,5.974,0.6,5.658,0.781,5.449 c0.183-0.208,0.498-0.227,0.706-0.048l12.84,11.2c0.639,0.557,1.719,0.557,2.357,0L29.508,5.419 c0.207-0.181,0.522-0.161,0.706,0.048c0.181,0.209,0.16,0.524-0.048,0.706L17.342,17.355 C16.835,17.797,16.171,18.018,15.506,18.018z"/></symbol><symbol id="placeholder" viewBox="0 0 54.757 54.757"><title>placeholder</title><path d="M27.557,12c-3.859,0-7,3.141-7,7s3.141,7,7,7s7-3.141,7-7S31.416,12,27.557,12z M27.557,24c-2.757,0-5-2.243-5-5 s2.243-5,5-5s5,2.243,5,5S30.314,24,27.557,24z"/><path d="M40.94,5.617C37.318,1.995,32.502,0,27.38,0c-5.123,0-9.938,1.995-13.56,5.617c-6.703,6.702-7.536,19.312-1.804,26.952 L27.38,54.757L42.721,32.6C48.476,24.929,47.643,12.319,40.94,5.617z M41.099,31.431L27.38,51.243L13.639,31.4 C8.44,24.468,9.185,13.08,15.235,7.031C18.479,3.787,22.792,2,27.38,2s8.901,1.787,12.146,5.031 C45.576,13.08,46.321,24.468,41.099,31.431z"/></symbol></svg>