<?xml version="1.0" encoding="utf-8"?>
<!-- Generator: Adobe Illustrator 16.0.0, SVG Export Plug-In . SVG Version: 6.00 Build 0)  -->
<!DOCTYPE svg PUBLIC "-//W3C//DTD SVG 1.1//EN" "http://www.w3.org/Graphics/SVG/1.1/DTD/svg11.dtd">
<svg version="1.1"
	 id="svg2" sodipodi:docname="twitter_bootstrap_logo.svg" inkscape:version="0.48.1 r9760" xmlns:sodipodi="http://sodipodi.sourceforge.net/DTD/sodipodi-0.dtd" xmlns:svg="http://www.w3.org/2000/svg" xmlns:dc="http://purl.org/dc/elements/1.1/" xmlns:inkscape="http://www.inkscape.org/namespaces/inkscape" xmlns:rdf="http://www.w3.org/1999/02/22-rdf-syntax-ns#" xmlns:cc="http://creativecommons.org/ns#"
	 xmlns="http://www.w3.org/2000/svg" xmlns:xlink="http://www.w3.org/1999/xlink" x="0px" y="0px" width="2000px"
	 height="2008.275px" viewBox="0 0 2000 2008.275" enable-background="new 0 0 2000 2008.275" xml:space="preserve">
<sodipodi:namedview  id="namedview2996" inkscape:cy="407.66551" pagecolor="#ffffff" guidetolerance="10" bordercolor="#666666" inkscape:cx="116.80866" showgrid="false" fit-margin-left="0" borderopacity="1" inkscape:zoom="0.24896372" fit-margin-top="0" objecttolerance="10" gridtolerance="10" inkscape:window-height="623" fit-margin-bottom="0" fit-margin-right="0" inkscape:current-layer="svg2" inkscape:window-y="0" inkscape:window-x="0" inkscape:pageshadow="2" inkscape:window-width="864" inkscape:pageopacity="0" inkscape:window-maximized="0">
	</sodipodi:namedview>
<path id="rect3050" stroke="#000000" stroke-miterlimit="10" d="M323.077,0h1353.847C1855.354,0,2000,144.646,2000,323.077v1362.122
	c0,178.431-144.646,323.077-323.076,323.077H323.077C144.646,2008.276,0,1863.63,0,1685.199V323.077C0,144.646,144.646,0,323.077,0z
	"/>
<g id="text3836" transform="scale(1.0052013,0.99482561)">
	<path id="path3841" inkscape:connector-curvature="0" fill="#FFFFFF" d="M1009.851,869.065
		c50.812,0.001,89.34-11.167,115.585-33.503c26.243-22.334,39.365-55.279,39.366-98.834c-0.001-42.995-13.123-75.66-39.366-97.996
		c-26.244-22.893-64.773-34.34-115.585-34.341H831.448v264.673L1009.851,869.065 M1020.74,1416.001
		c64.773,0,113.351-13.68,145.738-41.042c32.944-27.36,49.416-68.681,49.417-123.961c-0.001-54.163-16.194-94.646-48.579-121.449
		c-32.387-27.36-81.245-41.041-146.576-41.042H831.448v327.492H1020.74 M1320.592,966.223
		c69.24,20.103,122.844,57.236,160.815,111.398c37.969,54.164,56.954,120.611,56.955,199.343
		c-0.001,120.611-40.763,210.511-122.286,269.699c-81.525,59.189-205.487,88.783-371.884,88.783h-535.21v-1250.5h484.119
		c173.656,0.002,299.293,26.245,376.909,78.733c78.173,52.489,117.259,136.526,117.261,252.11
		c-0.002,60.865-14.24,112.794-42.717,155.788C1416.074,914.014,1374.753,945.563,1320.592,966.223"/>
</g>
</svg>
