<?xml version="1.0" encoding="utf-8"?>
<!-- Generator: Adobe Illustrator 16.0.0, SVG Export Plug-In . SVG Version: 6.00 Build 0)  -->
<!DOCTYPE svg PUBLIC "-//W3C//DTD SVG 1.1//EN" "http://www.w3.org/Graphics/SVG/1.1/DTD/svg11.dtd">
<svg version="1.1" id="Layer_1" xmlns="http://www.w3.org/2000/svg" xmlns:xlink="http://www.w3.org/1999/xlink" x="0px" y="0px"
	 width="2500px" height="2246px" viewBox="0 0 2500 2246" enable-background="new 0 0 2500 2246" xml:space="preserve">
<path d="M1963.053,778.034c-23.485-8.057-47.171-15.52-71.032-22.382c3.957-16.079,7.616-32.23,10.977-48.445
	c53.767-261.005,18.612-471.27-101.441-540.485c-115.103-66.384-303.356,2.832-493.485,168.284
	c-18.734,16.34-37.054,33.151-54.939,50.418c-11.978-11.481-24.166-22.739-36.561-33.769
	c-199.26-176.926-398.987-251.474-518.914-182.053c-114.995,66.569-149.057,264.247-100.65,511.6
	c4.816,24.495,10.254,48.864,16.308,73.083c-28.26,8.027-55.554,16.581-81.666,25.683
	c-233.604,81.441-382.796,209.093-382.796,341.489c0,136.752,160.149,273.915,403.479,357.075
	c19.73,6.712,39.625,12.932,59.666,18.651c-6.511,26.093-12.291,52.361-17.334,78.776
	c-46.15,243.057-10.106,436.046,104.586,502.206c118.462,68.307,317.281-1.904,510.887-171.136
	c15.302-13.379,30.663-27.567,46.043-42.439c19.372,18.69,39.263,36.839,59.646,54.421
	c187.531,161.37,372.739,226.534,487.334,160.199c118.354-68.514,156.81-275.839,106.87-528.084
	c-3.809-19.267-8.251-38.943-13.231-58.981c13.964-4.121,27.664-8.379,41.033-12.813
	c252.958-83.805,417.531-219.297,417.531-357.876C2355.36,988.582,2201.363,860.072,1963.053,778.034L1963.053,778.034z"/>
<path fill="#FFFFFF" d="M1908.183,1389.864c-12.061,3.993-24.443,7.851-37.06,11.591c-27.929-88.404-65.622-182.414-111.733-279.529
	c44.012-94.82,80.24-187.619,107.388-275.457c22.567,6.543,44.48,13.427,65.593,20.702
	c204.191,70.28,328.736,174.212,328.736,254.286c0,85.299-134.516,196.037-352.914,268.407H1908.183z M1817.562,1569.437
	c22.078,111.538,25.232,212.384,10.604,291.219c-13.144,70.837-39.568,118.062-72.243,136.977
	c-69.538,40.252-218.253-12.07-378.617-150.072c-18.388-15.819-36.912-32.713-55.486-50.583
	c62.176-68.006,124.312-147.064,184.954-234.854c106.675-9.463,207.452-24.941,298.845-46.063
	C1810.11,1534.224,1814.114,1552.025,1817.562,1569.437L1817.562,1569.437z M901.096,1990.679
	c-67.937,23.993-122.046,24.677-154.75,5.82c-69.606-40.136-98.531-195.109-59.069-402.962
	c4.692-24.564,10.065-48.993,16.112-73.259c90.377,19.989,190.422,34.374,297.351,43.045
	c61.043,85.905,124.976,164.866,189.406,234.014c-13.693,13.246-27.71,26.153-42.039,38.71
	c-85.611,74.84-171.399,127.924-247.001,154.632H901.096z M582.817,1389.337c-107.593-36.776-196.447-84.567-257.353-136.713
	c-54.724-46.874-82.36-93.405-82.36-131.167c0-80.338,119.79-182.824,319.577-252.479c25.076-8.705,50.401-16.673,75.944-23.896
	c27.616,89.811,63.835,183.713,107.544,278.67c-44.275,96.373-81.012,191.77-108.882,282.635
	C618.994,1401.15,600.832,1395.466,582.817,1389.337z M689.513,663.098c-41.474-211.935-13.936-371.801,55.368-411.917
	c73.825-42.733,237.051,18.202,409.095,170.959c10.995,9.766,22.04,19.989,33.104,30.565
	c-64.099,68.835-127.445,147.2-187.961,232.607c-103.774,9.618-203.116,25.067-294.44,45.76
	c-5.626-22.531-10.683-45.2-15.165-67.985V663.098z M1641.299,898.117c-21.57-37.26-43.941-74.051-67.097-110.348
	c70.407,8.887,137.855,20.702,201.192,35.165c-19.013,60.944-42.713,124.672-70.622,190.002
	C1684.382,974.244,1663.219,935.964,1641.299,898.117L1641.299,898.117z M1253.161,520.066
	c43.475,47.098,87.018,99.693,129.848,156.751c-86.881-4.105-173.907-4.125-260.79-0.059
	C1165.088,620.229,1209.003,567.711,1253.161,520.066L1253.161,520.066z M862.532,898.762
	c-21.646,37.546-42.412,75.592-62.282,114.106c-27.45-65.104-50.936-129.116-70.114-190.93
	c62.956-14.092,130.092-25.604,200.04-34.345C906.761,824.115,884.207,861.182,862.532,898.762z M932.188,1462.049
	c-72.263-8.066-140.414-18.994-203.351-32.694c19.481-62.907,43.484-128.296,71.521-194.797
	c19.954,38.544,40.812,76.612,62.556,114.175C885.101,1387.05,908.199,1424.832,932.188,1462.049z M1255.769,1729.508
	c-44.677-48.211-89.235-101.529-132.759-158.88c42.244,1.66,85.319,2.5,129.097,2.5c44.979,0,89.439-1.006,133.197-2.959
	C1342.337,1628.564,1298.95,1681.961,1255.769,1729.508z M1705.671,1231.17c29.491,67.224,54.354,132.26,74.099,194.103
	c-63.981,14.6-133.051,26.356-205.831,35.087c23.322-36.975,45.907-74.408,67.741-112.28
	C1663.875,1309.589,1685.21,1270.609,1705.671,1231.17L1705.671,1231.17z M1560.022,1300.99
	c-33.424,58.064-68.728,115.025-105.854,170.794c-65.466,4.678-133.119,7.09-202.062,7.09c-68.659,0-135.454-2.139-199.777-6.309
	c-38.09-55.639-74.062-112.698-107.837-171.058c-33.618-58.049-65.02-117.354-94.137-177.785
	c29.043-60.45,60.35-119.786,93.854-177.883v0.02c33.493-58.109,69.182-114.926,106.987-170.325
	c65.622-4.961,132.904-7.559,200.92-7.559c68.317,0,135.688,2.617,201.29,7.617c37.424,55.314,72.884,111.933,106.313,169.749
	c33.619,57.967,65.344,117.013,95.123,177.043c-29.473,60.642-61.097,120.215-94.811,178.605H1560.022z M1754.478,248.378
	c73.884,42.615,102.623,214.454,56.199,439.806c-3.043,14.68-6.351,29.304-9.922,43.865
	c-91.539-21.122-190.949-36.845-295.026-46.609c-60.633-86.335-123.452-164.837-186.517-232.783
	c16.525-15.932,33.444-31.45,50.74-46.541C1532.855,264.345,1685.105,208.37,1754.478,248.378L1754.478,248.378z"/>
<path d="M1252.106,924.425c108.823,0,197.032,88.219,197.032,197.032c0,108.823-88.209,197.043-197.032,197.043
	c-108.814,0-197.033-88.219-197.033-197.043C1055.073,1012.644,1143.292,924.425,1252.106,924.425"/>
</svg>
