<svg xmlns="http://www.w3.org/2000/svg" style="display: none;"><symbol id="css-3" viewBox="0 0 512 512"><title>css-3</title><path d="M32,0l40.8,460.8L256,512l183.136-51.168L480,0H32z M392.768,150.688l-5.152,57.888l-15.52,173.568L256,414.208 l-0.064,0.032l-116-32.128l-8.128-90.752h56.832l4.224,47.104l63.072,17.024l0.064-0.064l63.136-17.024l8.608-78.432 l-198.656,0.544l-5.632-53.664l209.056-2.432l4.224-57.44l-218.88,0.608l-3.68-53.376H256h141.824L392.768,150.688z"/></symbol><symbol id="html-5-logotype" viewBox="0 0 531.443 531.443"><title>html-5-logotype</title><path d="M79.94,480.176l179.224,50.575c3.256,0.918,8.531,0.924,11.781,0.013l180.553-50.601c3.256-0.912,6.132-4.382,6.438-7.748 L499.441,6.096C499.742,2.729,497.238,0,493.861,0H37.578c-3.378,0-5.875,2.729-5.575,6.096l41.506,466.319 C73.808,475.781,76.685,479.258,79.94,480.176z M124.757,97.828h281.918c3.378,0,5.869,2.729,5.563,6.096l-4.211,46.041 c-0.306,3.366-3.299,6.095-6.677,6.095H189.317c-3.378,0-5.894,2.729-5.612,6.102l3.978,48.036 c0.282,3.366,3.244,6.102,6.628,6.102H396.37c3.378,0,5.869,2.729,5.562,6.096l-15.521,168.826 c-0.312,3.366-3.2,6.824-6.463,7.724l-107.662,29.694c-3.257,0.899-5.901,1.701-5.901,1.787s-0.3,0.165-0.667,0.165 s-3.305-0.728-6.566-1.628l-108.661-30.019c-3.256-0.899-6.114-4.363-6.383-7.729l-6.353-80.312 c-0.263-3.372,2.258-6.102,5.637-6.102h45.992c3.378,0,6.377,2.729,6.689,6.096l3.195,34.4c0.312,3.366,3.213,6.812,6.475,7.692 l53.403,14.443c3.262,0.881,8.556,0.888,11.818,0.006l53.733-14.455c3.262-0.875,6.175-4.314,6.5-7.681l6.145-63.679 c0.324-3.366-2.154-6.089-5.533-6.089H140.4c-3.378,0-6.359-2.729-6.659-6.096L119.176,103.93 C118.882,100.558,121.379,97.828,124.757,97.828z"/></symbol><symbol id="wordpress-round-logo" viewBox="0 0 474.151 474.151"><title>wordpress-round-logo</title><g> <path d="M0,237.077c0,93.809,54.53,174.922,133.626,213.344L20.528,140.625C7.366,170.077,0,202.715,0,237.077z"/> </g><g> <path d="M241.246,257.791l-71.154,206.681c21.236,6.219,43.729,9.663,66.968,9.663c27.613,0,54.103-4.784,78.738-13.436 c-0.616-1.028-1.209-2.119-1.7-3.288L241.246,257.791z"/> </g><g> <path d="M397.112,225.089c0-29.295-10.551-49.573-19.554-65.348c-12.017-19.537-23.286-36.06-23.286-55.622 c0-21.75,16.523-42.045,39.809-42.045c1.068,0,2.074,0.141,3.063,0.188C354.99,23.63,298.791,0.016,237.06,0.016 c-82.828,0-153.093,41.813-195.895,103.605c5.557,0.203,76.252,0.498,76.252,0.498c12.78-0.716,14.291,18.051,1.534,19.563 c0,0-12.852,1.496-27.145,2.244l86.335,256.746l51.874-155.557l-36.927-101.19c-12.771-0.748-24.853-1.06-24.853-1.06 c-12.772-0.748-11.278-18.377,1.48-18.377h125.646c12.773,0,14.271,16.865,1.496,18.377c0,0-12.851,0.903-27.12,1.652 l85.688,254.518l23.629-79.15C391.089,271.079,397.112,245.399,397.112,225.089z"/> </g><g> <path d="M445.097,123.338c1.021,7.576,1.605,15.682,1.605,24.395c0,24.042-4.504,51.07-18.049,84.885l-72.401,209.34 c70.5-41.088,117.899-117.432,117.899-204.881C474.151,195.857,463.614,157.108,445.097,123.338z"/> </g></symbol><symbol id="adobe-illustrator" viewBox="0 0 231.597 231.597"><title>adobe-illustrator</title><path id="XMLID_450_" d="M2.499,211.77h42.076c1.123,0,2.109-0.749,2.41-1.832l12.271-44.237h47.637l13.313,44.289 c0.318,1.057,1.291,1.78,2.395,1.78h43.672c0.008,0,0.016,0,0.02,0c1.381,0,2.5-1.119,2.5-2.5c0-0.369-0.078-0.719-0.223-1.034 l-55.564-179.19c-0.324-1.046-1.293-1.76-2.389-1.76h-53.26c-1.1,0-2.07,0.718-2.391,1.769L0.109,208.539 c-0.23,0.758-0.09,1.581,0.381,2.218C0.962,211.394,1.706,211.77,2.499,211.77z M99.554,130.342H66.511l9.764-34.902 c1.773-6.289,3.449-13.731,5.07-20.928c0.371-1.653,0.736-3.275,1.098-4.861c2.145,8.622,4.504,17.937,6.869,25.815L99.554,130.342 z"/><path id="XMLID_453_" d="M187.288,76.551c-1.381,0-2.5,1.119-2.5,2.5V209.27c0,1.381,1.119,2.5,2.5,2.5h40.477 c1.381,0,2.5-1.119,2.5-2.5V79.051c0-1.381-1.119-2.5-2.5-2.5H187.288z"/><path id="XMLID_454_" d="M207.261,65.571c14.102,0,24.336-9.563,24.336-22.795c-0.307-13.512-10.205-22.949-24.07-22.949 c-7.078,0-13.363,2.442-17.697,6.878c-4.067,4.16-6.234,9.886-6.108,16.127c-0.129,6.043,2.043,11.666,6.119,15.84 C194.185,63.121,200.372,65.571,207.261,65.571z"/></symbol><symbol id="adobe-photoshop" viewBox="0 0 243.852 243.852"><title>adobe-photoshop</title><path id="XMLID_311_" d="M45.213,211.003v-61.364c3.273,0.319,7.133,0.485,11.346,0.485c25.676,0,46.436-6.773,60.043-19.594 c11.146-10.589,17.287-26.365,17.287-44.42c0-17.536-7.334-33.392-20.109-43.494c-12.559-10.045-31.014-14.929-56.42-14.929 c-22.008,0-40.605,1.266-55.279,3.764C0.879,31.654,0,32.696,0,33.915v177.088c0,1.381,1.119,2.5,2.5,2.5h40.213 C44.094,213.503,45.213,212.384,45.213,211.003z M45.213,113.339V64.405c2.455-0.471,7.066-1.094,14.275-1.094 c18.551,0,29.19,8.698,29.19,23.863c0,16.776-12.105,26.793-32.385,26.793C51.428,113.967,47.963,113.775,45.213,113.339z"/><path id="XMLID_334_" d="M206.76,129.02c-16.568-5.798-19.363-8.559-19.363-12.553c0-7.093,8.109-8.152,12.945-8.152 c10.268,0,20.979,3.852,27.031,7.15c0.678,0.369,1.484,0.405,2.193,0.098c0.705-0.308,1.232-0.924,1.424-1.67l7.191-27.959 c0.293-1.141-0.25-2.332-1.303-2.858c-7.465-3.732-21.332-7.721-37.869-7.721c-32.674,0-55.494,18.549-55.494,45.065 c-0.221,12.937,6.317,30.649,38.725,41.558c15.742,5.248,17.465,7.975,17.465,12.542c0,2.082,0,8.418-14.809,8.418 c-11.094,0-26.072-4.927-33.588-9.491c-0.682-0.413-1.516-0.478-2.252-0.174c-0.734,0.303-1.281,0.938-1.473,1.71l-7.189,29.028 c-0.274,1.107,0.236,2.258,1.238,2.8c10.998,5.944,26.768,9.354,43.264,9.354c36.365,0,58.955-17.08,58.955-44.608 C243.563,150.866,232.119,137.746,206.76,129.02z"/></symbol></svg>